<?xml version="1.0"?>
<svg xmlns="http://www.w3.org/2000/svg" viewBox="0 0 64 64" width="512" height="512"><g id="Layer_31" data-name="Layer 31"><path d="M59.15,31.38h0L45.6,10.65a3.59,3.59,0,0,0-6.47,1,3.54,3.54,0,0,0,.59,3.11l1,1.39,1.6-1.2-1-1.39a1.56,1.56,0,0,1-.26-1.37,1.58,1.58,0,0,1,2.86-.43L54.7,28.22A14,14,0,0,0,35.59,37H28.41A14,14,0,0,0,9.3,28.22L20.08,11.73a1.58,1.58,0,0,1,2.86.43,1.56,1.56,0,0,1-.26,1.37l-1,1.39,1.6,1.2,1-1.39a3.58,3.58,0,1,0-5.87-4.09L4.85,31.38h0A14,14,0,1,0,28.41,45h7.18A14,14,0,1,0,59.15,31.38ZM15,53A12,12,0,1,1,27,41,12,12,0,0,1,15,53ZM28.84,43a12.58,12.58,0,0,0,0-4h6.32a12.58,12.58,0,0,0,0,4ZM49,53A12,12,0,1,1,61,41,12,12,0,0,1,49,53Z"/><path d="M49,31A10,10,0,1,0,59,41,10,10,0,0,0,49,31ZM42.27,45.31a8,8,0,0,1-1-2.19l9.83-9.83a8,8,0,0,1,2.19,1ZM48.56,33,41,40.56A8,8,0,0,1,48.56,33ZM49,49a8,8,0,0,1-5.44-2.15L54.85,35.56a8,8,0,0,1,1.3,1.87l-4.86,4.86,1.42,1.42,4.15-4.16A7.67,7.67,0,0,1,57,41,8,8,0,0,1,49,49Z"/><path d="M15,31A10,10,0,1,0,25,41,10,10,0,0,0,15,31ZM8.27,45.31a8,8,0,0,1-1-2.19l9.83-9.83a8,8,0,0,1,2.19,1ZM14.56,33,7,40.56A8,8,0,0,1,14.56,33ZM15,49a8,8,0,0,1-5.44-2.15L20.85,35.56a8,8,0,0,1,1.3,1.87l-4.86,4.86,1.42,1.42,4.15-4.16A7.67,7.67,0,0,1,23,41,8,8,0,0,1,15,49Z"/></g></svg>
